<?xml version="1.0" encoding="UTF-8"?>
<svg id="Layer_1" data-name="Layer 1" xmlns="http://www.w3.org/2000/svg" viewBox="0 0 374.01 509.54">
  <defs>
    <style>
      .cls-1 {
        fill: #033d54;
      }
    </style>
  </defs>
  <path class="cls-1" d="M305.03,355.64c-4.93,31.55-29.85,59.09-61.17,66.31-21.04,4.85-54.93,4.42-75.09-3.56-31.29-12.4-43-41.1-61.92-66.08-4.81-6.34-8.49-12.14-17.27-12.75-23.99-1.66-19.78,26.69-31.03,40.07-5.71,6.79-16.7,12.56-25.5,9.98l-16.47,114.05c-4.42,9.69-16.21,6.59-16.58-3.49l16.62-116.11c-16.39-14.6-9.77-36.67-3.35-54.71,16.63-46.73,68.6-70.17,115.02-51.5,28.84,11.6,35.81,33.07,72.79,27.31,11.92-1.85,25.8-10.83,37.73-14.27,34.51-9.92,66.24,13.34,67.22,48.72"/>
  <path class="cls-1" d="M185.54,220.63c-2.79-.55-5.96-3.58-6.44-6.56-1.12-7.08-.97-33.54.02-40.85,1.18-8.7,8.76-16.02,16.43-19.57.46-4.06,1.61-14.83-.8-17.74-1.42-1.71-10.72-7.13-13.72-9.76-2.81-2.47-5.93-5.75-8.55-8.49-1.32-1.38-1.38-4.54-3.44-2.52l-1,13.49c12.98,1.9,10.75,16.72-1.96,17.08l-3.91,49.35c.43,1.7,4.57,1.78,6.33,3.61,5.57,5.81.73,15.49-7.43,13.99l-5.04,60.97-15.83-9.66,3.89-50.82c-.69-3.94-9.38-3.89-6.6-12.58,1.61-5.04,8.34-5.48,8.6-6.6l4.02-49.69c-9.85-3.28-9.61-15.51.95-17.14l3.98-46.02c-.17-7.4-6.93-7.15-6.06-15.04.69-6.25,7.68-5.91,8.09-7.14l3.88-42.23c-10.34-1.06-10.35-15.61.04-16.65,3.69-.37,16.69.71,20.3,1.81,7.98,2.43,7.27,13.48-.24,15.78l.09,1.35c20.35,32.08,32.66,69.04,31.01,107.51,15.86,5.44,32.18,10.35,49.21,9.15.64-.15,4.66-9.51,4.63-10.55-.06-2.14-3.15-4.13-3.72-6.23-2.04-7.59,3.22-12.51,10.77-10.77,2.68.62,16.44,6.94,18.34,8.66,5.57,5.05,1.87,13.89-5.09,14.65-1.44.16-3.84-1.05-4.21-.79-.7.5-6.47,14.47-5.62,16,.73,1.3,10.46,8.63,12.25,9.8,6.73,4.41,13.33,7.66,21.1,9.9,4.27,1.23,13.3,4.36,16.63,1.21,6.97-6.58,13.04-18.01,20.15-24.94-6.4-8.23.38-19.3,10.34-14.38,2.89,1.43,15.16,11.92,16.35,14.64,3.45,7.93-6.08,14.71-13.26,10.21-6.59,8.5-15.38,16.46-20.03,26v76.87c9.95,5.05,16.08,11.55,17.08,23.13.52,6.02.9,33.07-.48,37.59-1.01,3.31-4.72,5.58-8.03,5.97-7.41.87-26.58.83-34.04,0-5.41-.6-7.91-3.12-8.5-8.5-.93-8.43-.85-30.33.48-38.57,1.4-8.66,8.19-16.29,16.55-18.95v-58l-4.87,5.72c4.89,10.08-.19,19.6-11.48,14.43l-31.16,37.92c-1.43,3.79,5.76,9.66-1.98,14.93-5.03,3.42-6.89.19-11.96-.04-6.87-.31-13.79,0-20.54,1.03l8.89-11.64c.33-1.86-5.76-5.07-1.21-12.08,3.81-5.88,11.02-.88,14.38-3.69l29.81-37.9c-3-3.61-4.1-6.38-1.33-10.64,4.82-7.44,11.22-1.94,12.47-2.5,1.18-.53,8.64-9.8,7.98-10.53-14.9-2.97-30.42-9.93-41.21-20.73l-2.74-.24-11.9,28.73c-.77,2.87,2.97,3.73,3.64,5.93,2.36,7.74-3.1,13.75-10.86,11.81l-19.57,44.47c-.52,2.93,5.65,5.82,3.42,13.31-1.77,5.92-10.92,4.16-11.69,4.81-.31.26-1.53,5.74-2.89,7.61-2.19,2.99-15.08,7.91-19.17,8.83-.88.2-2.65,1.18-3.03-.03l9.85-24.36c-6.13-1.58-5.88-11.15-1.27-14.05,2.91-1.83,7.34-.21,8.91-2.09l11.47-26.53c.41-3.16-2.06-.48-2.49-.48-9.43,0-29,1.59-37,0ZM195.03,115.63c-.64-20.51-5.4-41.95-13.82-60.67-1.51-3.35-3.4-8.05-6.16-10.33l-1.08,15.4c11.53,2.37,10.94,17.09-.94,18.09-2.3,1.57,2.62,12.69,3.84,15.18,4.13,8.46,10.84,16.46,18.17,22.32ZM254.03,152.64c-14.43-.23-28.23-4.28-41.99-8-2.56,11.55,5.29,9.93,11.02,16.47,8.36,9.54,4.41,15.61,6.14,25.27.2,1.11.32,1.55,1.33,2.24,2.64-3.67,6.58-2.17,10.04-3.95l13.46-32.03Z"/>
  <path class="cls-1" d="M106.21,236.47c2.86,1.88,9.53-1.43,11.16,7.37,1.2,6.49-4.99,7.08-5.4,11.67l-26.82-1c-1.46-4.03-1.05-6.41,1.46-9.81,1.05-1.42,4.18-1.55,3.28-4.31L44.47,103.67c-.14-10.07,11.43-13.43,16.33-4.3l45.4,137.1Z"/>
</svg>